<svg width="137.148132" height="17.829102" viewBox="0 0 137.148 17.8291" fill="none" xmlns="http://www.w3.org/2000/svg" xmlns:xlink="http://www.w3.org/1999/xlink">
	<desc>
			Created with Pixso.
	</desc>
	<defs/>
	<path id="Vector" d="M59.2 11.59L68.27 11.59L63.47 3.88L54.68 17.82L50.68 17.82L61.37 1.08C61.84 0.4 62.61 0 63.47 0C64.3 0 65.08 0.39 65.53 1.05L76.27 17.82L72.27 17.82L70.38 14.71L61.2 14.71L59.2 11.59ZM100.78 14.71L100.78 0.16L97.38 0.16L97.38 16.13C97.38 16.57 97.55 16.99 97.88 17.32C98.2 17.64 98.64 17.82 99.12 17.82L114.61 17.82L116.61 14.71L100.78 14.71ZM44.59 12.1C47.89 12.1 50.56 9.44 50.56 6.14C50.56 2.84 47.89 0.16 44.59 0.16L29.73 0.16L29.73 17.82L33.12 17.82L33.12 3.28L44.36 3.28C45.94 3.28 47.21 4.56 47.21 6.14C47.21 7.72 45.94 9 44.36 9L34.79 8.99L44.93 17.82L49.86 17.82L43.04 12.1L44.59 12.1ZM8.83 17.82C3.95 17.82 0 13.88 0 9C0 4.12 3.95 0.16 8.83 0.16L19.09 0.16C23.97 0.16 27.92 4.12 27.92 9C27.92 13.88 23.97 17.82 19.09 17.82L8.83 17.82ZM18.86 14.71C22.02 14.71 24.58 12.16 24.58 9C24.58 5.84 22.02 3.28 18.86 3.28L9.05 3.28C5.9 3.28 3.34 5.84 3.34 9C3.34 12.16 5.9 14.71 9.05 14.71L18.86 14.71ZM83.36 17.82C78.48 17.82 74.52 13.88 74.52 9C74.52 4.12 78.48 0.16 83.36 0.16L95.55 0.16L93.56 3.28L83.59 3.28C80.43 3.28 77.86 5.84 77.86 9C77.86 12.16 80.43 14.71 83.59 14.71L95.83 14.71L93.83 17.82L83.36 17.82ZM124.9 14.71C122.29 14.71 120.08 12.96 119.4 10.55L133.92 10.55L135.92 7.44L119.4 7.44C120.08 5.04 122.29 3.28 124.9 3.28L134.86 3.28L136.88 0.16L124.67 0.16C119.79 0.16 115.83 4.12 115.83 9C115.83 13.88 119.79 17.82 124.67 17.82L135.14 17.82L137.14 14.71L124.9 14.71Z" fill="#EA1B22" fill-opacity="1.000000" fill-rule="nonzero"/>
</svg>
