<svg width="117.876099" height="14.560059" viewBox="0 0 117.876 14.5601" fill="none" xmlns="http://www.w3.org/2000/svg" xmlns:xlink="http://www.w3.org/1999/xlink">
	<desc>
			Created with Pixso.
	</desc>
	<defs/>
	<path id="ShapeVoice" d="M2.01 13.64C2.96 14.25 4.12 14.56 5.49 14.56Q7.58 14.56 8.96 13.57Q9.06 13.49 9.15 13.42Q9.75 12.94 10.09 12.33Q10.58 11.47 10.58 10.34Q10.58 9.25 10.11 8.44Q10.08 8.4 10.06 8.36C9.83 7.93 9.39 7.52 8.73 7.12C8.55 6.98 8.25 6.84 7.85 6.7C7.43 6.52 7.13 6.41 6.95 6.36L5.99 6.04C4.98 5.73 4.27 5.44 3.87 5.16C3.51 4.88 3.33 4.52 3.33 4.08C3.33 3.66 3.5 3.33 3.83 3.08C4.17 2.81 4.61 2.68 5.17 2.68Q5.97 2.68 6.58 3.01Q7.38 3.46 7.85 4.48L10.18 3.14C9.69 2.14 9.02 1.36 8.15 0.82Q7.87 0.64 7.57 0.5Q6.49 6.67e-5 5.17 6.67e-5C3.89 6.67e-5 2.81 0.38 1.91 1.14Q1.43 1.53 1.12 2.04Q0.57 2.93 0.57 4.16Q0.57 5.44 1.18 6.3Q1.47 6.72 1.89 7.04Q2.95 7.78 4.79 8.34C5.93 8.66 6.71 8.96 7.15 9.24Q7.51 9.45 7.68 9.77Q7.81 10.04 7.81 10.38Q7.81 10.71 7.68 10.97Q7.54 11.25 7.25 11.46Q6.69 11.86 5.57 11.86Q4.29 11.86 3.46 11.24Q2.74 10.71 2.35 9.72L-1.71e-5 11.1Q0.33 11.99 0.91 12.67Q1.38 13.22 2.01 13.64ZM83.26 13.96Q84.45 13.44 85.44 12.46Q86.43 11.47 86.96 10.28Q87.56 8.91 87.56 7.28Q87.56 5.62 86.94 4.24Q86.41 3.08 85.44 2.12Q84.43 1.11 83.22 0.58Q81.88 6.67e-5 80.28 6.67e-5C78.26 6.67e-5 76.54 0.7 75.12 2.12C73.72 3.52 73.02 5.24 73.02 7.28C73.02 9.3 73.72 11.03 75.12 12.46C76.54 13.86 78.26 14.56 80.28 14.56Q81.9 14.56 83.26 13.96ZM96.28 12.46C97.66 13.86 99.4 14.56 101.5 14.56C102.76 14.56 103.93 14.26 105 13.68C106.08 13.08 106.92 12.27 107.52 11.26L105.14 9.88C104.8 10.49 104.31 10.98 103.66 11.34C103.02 11.68 102.3 11.86 101.5 11.86C100.14 11.86 99.04 11.43 98.2 10.58C97.37 9.71 96.96 8.61 96.96 7.28C96.96 5.93 97.37 4.82 98.2 3.96C99.04 3.1 100.14 2.68 101.5 2.68C102.3 2.68 103.02 2.86 103.66 3.22C104.3 3.56 104.79 4.05 105.14 4.68L107.52 3.3C106.92 2.28 106.08 1.48 105 0.9C103.93 0.3 102.76 6.67e-5 101.5 6.67e-5C99.4 6.67e-5 97.66 0.7 96.28 2.1C94.9 3.47 94.22 5.2 94.22 7.28C94.22 9.34 94.9 11.07 96.28 12.46ZM20.24 0.28L20.24 5.84L15.04 5.84L15.04 0.28L12.28 0.28L12.28 14.28L15.04 14.28L15.04 8.48L20.24 8.48L20.24 14.28L22.98 14.28L22.98 0.28L20.24 0.28ZM34.58 14.28L37.58 14.28L32.66 0.28L29.24 0.28L24.34 14.28L27.32 14.28L28.16 11.76L33.74 11.76L34.58 14.28ZM44.16 0.28L38.94 0.28L38.94 14.28L41.7 14.28L41.7 9.68L44.16 9.68C45.49 9.68 46.62 9.22 47.56 8.32C48.48 7.41 48.94 6.3 48.94 4.98C48.94 3.66 48.48 2.54 47.56 1.64C46.62 0.73 45.49 0.28 44.16 0.28ZM53.49 11.64L53.49 8.5L58.79 8.5L58.79 5.9L53.49 5.9L53.49 2.92L59.29 2.92L59.29 0.28L50.73 0.28L50.73 14.28L59.39 14.28L59.39 11.64L53.49 11.64ZM64.8 14.28L68.22 14.28L72.94 0.28L69.92 0.28L66.52 11.04L63.1 0.28L60.1 0.28L64.8 14.28ZM89.5 0.28L89.5 14.28L92.26 14.28L92.26 0.28L89.5 0.28ZM111.97 11.64L111.97 8.5L117.27 8.5L117.27 5.9L111.97 5.9L111.97 2.92L117.77 2.92L117.77 0.28L109.21 0.28L109.21 14.28L117.87 14.28L117.87 11.64L111.97 11.64ZM80.28 11.86C78.99 11.86 77.92 11.43 77.06 10.58C76.2 9.71 75.76 8.61 75.76 7.28C75.76 5.94 76.2 4.84 77.06 3.98Q77.62 3.42 78.28 3.1Q79.18 2.68 80.28 2.68Q81.39 2.68 82.28 3.1Q82.95 3.42 83.5 3.98Q83.97 4.44 84.27 4.99Q84.8 5.99 84.8 7.28Q84.8 8.56 84.27 9.56Q83.97 10.11 83.5 10.58Q83.01 11.06 82.43 11.37Q81.48 11.86 80.28 11.86ZM44.16 7.1L41.7 7.1L41.7 2.86L44.16 2.86C44.74 2.86 45.23 3.06 45.62 3.46C46 3.86 46.2 4.36 46.2 4.98C46.2 5.58 46 6.08 45.62 6.5C45.23 6.9 44.74 7.1 44.16 7.1ZM29.04 9.18L30.96 3.46L32.88 9.18L29.04 9.18Z" fill="#000000" fill-opacity="1.000000" fill-rule="evenodd"/>
</svg>
